<?xml version="1.0" standalone="no"?>
<!DOCTYPE svg PUBLIC "-//W3C//DTD SVG 20010904//EN"
 "http://www.w3.org/TR/2001/REC-SVG-20010904/DTD/svg10.dtd">
<svg version="1.0" xmlns="http://www.w3.org/2000/svg"
 width="512.000000pt" height="512.000000pt" viewBox="0 0 512.000000 512.000000"
 preserveAspectRatio="xMidYMid meet">
<metadata>
Created by potrace 1.14, written by Peter Selinger 2001-2017
</metadata>
<g transform="translate(0.000000,512.000000) scale(0.100000,-0.100000)"
fill="#000000" stroke="none">
<path d="M1478 5113 c595 -2 1569 -2 2165 0 595 1 108 2 -1083 2 -1191 0
-1678 -1 -1082 -2z"/>
<path d="M358 5103 c7 -3 16 -2 19 1 4 3 -2 6 -13 5 -11 0 -14 -3 -6 -6z"/>
<path d="M4748 5103 c6 -2 18 -2 25 0 6 3 1 5 -13 5 -14 0 -19 -2 -12 -5z"/>
<path d="M318 5093 c7 -3 16 -2 19 1 4 3 -2 6 -13 5 -11 0 -14 -3 -6 -6z"/>
<path d="M241 5065 c-73 -42 -118 -83 -160 -147 -23 -33 -41 -65 -41 -72 0 -6
14 13 31 43 40 69 101 129 175 169 33 17 55 32 49 32 -5 0 -30 -11 -54 -25z"/>
<path d="M4830 5080 c8 -5 20 -10 25 -10 6 0 3 5 -5 10 -8 5 -19 10 -25 10 -5
0 -3 -5 5 -10z"/>
<path d="M4884 5058 c66 -45 118 -93 147 -137 37 -58 47 -66 23 -19 -22 43
-113 132 -155 152 -19 9 -26 11 -15 4z"/>
<path d="M5070 4855 c0 -5 5 -17 10 -25 5 -8 10 -10 10 -5 0 6 -5 17 -10 25
-5 8 -10 11 -10 5z"/>
<path d="M26 4815 c-3 -9 -6 -22 -5 -28 0 -7 5 -1 10 12 5 13 8 26 5 28 -2 2
-6 -3 -10 -12z"/>
<path d="M5102 4760 c0 -14 2 -19 5 -12 2 6 2 18 0 25 -3 6 -5 1 -5 -13z"/>
<path d="M12 4750 c0 -14 2 -19 5 -12 2 6 2 18 0 25 -3 6 -5 1 -5 -13z"/>
<path d="M5115 2560 c0 -1191 1 -1678 2 -1083 2 596 2 1570 0 2165 -1 596 -2
109 -2 -1082z"/>
<path d="M5 2560 c0 -1180 1 -1662 2 -1073 2 590 2 1556 0 2145 -1 590 -2 108
-2 -1072z"/>
<path d="M1718 4185 c-329 -83 -537 -398 -474 -716 26 -127 75 -218 171 -315
136 -137 302 -202 490 -191 238 15 438 145 541 352 85 173 83 361 -6 543 -71
142 -212 263 -370 314 -85 27 -269 34 -352 13z"/>
<path d="M3165 4185 c-224 -46 -423 -234 -479 -451 -20 -78 -21 -231 -1 -304
91 -343 458 -542 805 -438 202 61 365 227 426 433 25 87 23 238 -6 330 -61
196 -229 360 -430 419 -78 24 -229 29 -315 11z"/>
<path d="M1230 1365 l0 -1355 -412 -3 c-227 -1 557 -2 1742 -2 1185 0 1936 1
1668 2 l-488 3 0 1355 0 1355 -437 -2 -438 -3 -37 -230 c-195 -1191 -400
-2434 -405 -2453 -5 -22 -8 -22 -154 -22 -88 0 -149 4 -149 10 0 8 101 624
350 2139 50 299 90 548 90 552 0 5 -296 9 -665 9 l-665 0 0 -1355z"/>
<path d="M12 370 c0 -14 2 -19 5 -12 2 6 2 18 0 25 -3 6 -5 1 -5 -13z"/>
<path d="M5102 360 c0 -14 2 -19 5 -12 2 6 2 18 0 25 -3 6 -5 1 -5 -13z"/>
<path d="M21 330 c0 -8 4 -22 9 -30 12 -18 12 -2 0 25 -6 13 -9 15 -9 5z"/>
<path d="M5076 285 c-9 -26 -7 -32 5 -12 6 10 9 21 6 23 -2 3 -7 -2 -11 -11z"/>
<path d="M40 274 c0 -26 86 -138 134 -173 53 -40 115 -75 121 -69 2 2 -21 16
-51 32 -70 37 -133 98 -173 167 -17 30 -31 49 -31 43z"/>
<path d="M5050 230 c-6 -11 -8 -20 -6 -20 3 0 10 9 16 20 6 11 8 20 6 20 -3 0
-10 -9 -16 -20z"/>
<path d="M4975 137 c-33 -34 -46 -52 -30 -40 29 20 55 47 84 86 24 31 7 17
-54 -46z"/>
<path d="M4860 55 c-25 -13 -41 -24 -37 -25 11 0 87 39 87 45 0 7 0 7 -50 -20z"/>
<path d="M318 23 c7 -3 16 -2 19 1 4 3 -2 6 -13 5 -11 0 -14 -3 -6 -6z"/>
<path d="M4788 23 c7 -3 16 -2 19 1 4 3 -2 6 -13 5 -11 0 -14 -3 -6 -6z"/>
<path d="M358 13 c7 -3 16 -2 19 1 4 3 -2 6 -13 5 -11 0 -14 -3 -6 -6z"/>
<path d="M4748 13 c7 -3 16 -2 19 1 4 3 -2 6 -13 5 -11 0 -14 -3 -6 -6z"/>
</g>
</svg>
