<?xml version="1.0" standalone="no"?>
<!DOCTYPE svg PUBLIC "-//W3C//DTD SVG 20010904//EN"
 "http://www.w3.org/TR/2001/REC-SVG-20010904/DTD/svg10.dtd">
<svg version="1.0" xmlns="http://www.w3.org/2000/svg"
 width="512.000000pt" height="512.000000pt" viewBox="0 0 512.000000 512.000000"
 preserveAspectRatio="xMidYMid meet">
<metadata>
Created by potrace 1.11, written by Peter Selinger 2001-2013
</metadata>
<g transform="translate(0.000000,512.000000) scale(0.100000,-0.100000)"
fill="#000000" stroke="none">
<path d="M3001 4232 c-6 -12 -15 -38 -19 -58 -4 -21 -13 -39 -19 -41 -7 -3 -9
4 -6 16 7 27 -6 77 -16 65 -5 -5 -16 -73 -25 -152 -18 -151 -35 -217 -63 -237
-10 -8 -14 -19 -9 -30 4 -11 -17 -74 -58 -174 -38 -93 -66 -178 -70 -211 -3
-30 -11 -82 -17 -115 -11 -55 -10 -64 10 -102 l21 -42 -31 -22 c-33 -23 -61
-79 -73 -144 -4 -22 -13 -46 -19 -54 -6 -7 -12 -43 -13 -80 -1 -90 0 -88 -36
-100 -17 -6 -32 -10 -32 -9 -29 75 -67 127 -119 163 -47 32 -67 55 -103 120
-25 44 -58 94 -74 110 -35 36 -60 93 -60 137 0 18 -14 73 -30 123 -16 49 -37
126 -45 170 -40 216 -47 264 -46 318 2 44 -3 66 -20 93 -17 28 -20 46 -17 90
7 88 -22 78 -37 -13 -8 -48 -24 -66 -45 -53 -38 24 -64 11 -92 -43 -31 -59
-35 -85 -13 -93 8 -4 15 -13 15 -22 0 -8 32 -46 71 -83 71 -67 72 -69 65 -109
-24 -152 -12 -378 25 -452 11 -21 19 -46 19 -58 0 -11 40 -141 90 -290 l90
-270 -11 -127 c-11 -136 -21 -160 -63 -147 -11 4 -33 7 -50 8 -23 1 -32 8 -38
26 -47 159 -59 225 -68 362 -5 82 -14 177 -20 211 -7 40 -8 85 -2 125 11 81 6
105 -28 135 -37 33 -78 33 -92 -2 -13 -35 -3 -126 18 -159 13 -20 18 -57 22
-183 l4 -158 -26 -7 c-35 -8 -84 -66 -92 -109 -7 -40 -19 -39 -27 3 -3 15 -16
40 -28 56 -21 27 -22 34 -20 246 2 146 -1 220 -8 225 -8 4 -6 11 4 21 8 9 15
22 15 30 0 9 18 59 39 112 29 70 46 134 62 232 12 74 28 148 36 163 9 18 12
46 9 80 -3 29 -5 55 -5 60 -1 4 -7 7 -15 7 -8 0 -20 17 -27 38 -6 20 -17 48
-24 62 -7 14 -18 37 -24 53 -17 43 -34 34 -26 -15 l6 -43 -40 45 c-41 46 -66
50 -37 5 9 -14 23 -36 32 -50 14 -22 14 -25 1 -19 -24 9 -29 -14 -7 -36 11
-11 20 -26 20 -34 0 -8 10 -31 21 -51 24 -40 22 -103 -6 -158 -8 -17 -15 -38
-15 -47 0 -22 -38 -121 -85 -224 -19 -43 -38 -100 -41 -125 -3 -25 -13 -72
-22 -103 -23 -76 -48 -83 -85 -21 -45 73 -138 115 -209 94 -56 -17 -103 -63
-116 -113 -34 -132 -43 -184 -38 -214 7 -34 -5 -52 -22 -31 -5 6 -12 65 -16
131 -4 66 -14 137 -23 160 -8 22 -19 73 -23 111 -5 39 -18 93 -30 120 -49 113
-120 343 -120 391 0 21 58 140 76 155 17 14 8 33 -12 25 -21 -8 -17 2 16 44
17 21 30 43 30 49 0 22 -19 10 -56 -34 -20 -25 -39 -44 -41 -42 -2 3 3 23 10
46 15 41 8 62 -10 38 -6 -6 -26 -48 -46 -92 -20 -44 -42 -81 -50 -83 -22 -4
-31 -105 -13 -140 8 -15 22 -90 31 -167 9 -77 23 -158 32 -180 8 -22 26 -76
41 -120 15 -44 30 -81 34 -83 5 -2 2 -13 -4 -25 -17 -31 -17 -470 1 -556 10
-50 10 -66 0 -71 -8 -5 -9 -17 -4 -36 9 -33 7 -84 -5 -99 -12 -16 -18 -88 -8
-114 12 -32 6 -35 -31 -14 -27 16 -31 23 -31 60 0 23 -5 45 -10 48 -6 3 -10
36 -10 72 0 55 -2 64 -16 59 -11 -4 -18 1 -21 14 -3 11 -10 20 -15 20 -5 0 -6
-10 -3 -22 7 -22 6 -22 -20 3 -18 17 -27 37 -27 60 -1 19 -8 39 -16 45 -12 9
-12 20 4 84 16 66 16 87 6 194 -7 67 -22 177 -33 246 l-22 125 32 67 c17 37
31 71 31 75 0 13 -91 93 -106 93 -10 0 -14 12 -14 41 0 44 -14 79 -32 79 -7 0
-9 -19 -5 -57 5 -47 2 -66 -15 -100 -23 -46 -23 -41 12 -208 5 -22 12 -104 16
-182 l7 -141 -39 3 c-21 2 -44 -1 -51 -7 -17 -14 -33 0 -73 62 -36 56 -76 85
-138 98 -32 8 -44 7 -53 -5 -7 -7 -18 -12 -25 -9 -15 6 -81 -58 -109 -105 -27
-47 -29 -53 -16 -45 6 4 11 3 11 -1 0 -5 -9 -14 -20 -21 -11 -7 -20 -17 -20
-23 0 -5 5 -7 10 -4 6 4 10 -12 10 -40 0 -38 -4 -48 -20 -52 -11 -3 -20 -10
-20 -15 0 -6 8 -7 18 -4 10 4 8 -1 -8 -14 -24 -21 -24 -21 -2 -15 26 7 30 -11
4 -19 -10 -3 -18 -15 -19 -25 -1 -14 3 -18 13 -14 18 7 18 -18 -1 -43 -25 -33
-16 -41 10 -9 27 33 30 28 14 -28 -7 -25 -7 -43 0 -55 9 -15 10 -15 11 5 0 12
5 25 11 28 7 5 8 -5 3 -30 -6 -35 -5 -37 15 -30 43 13 20 -15 -29 -36 l-50
-21 0 -1209 0 -1209 2560 0 2560 0 0 1236 c0 699 -4 1233 -9 1230 -4 -3 -12
-20 -16 -38 l-7 -33 -10 30 c-5 17 -11 36 -14 43 -6 21 -32 -9 -37 -44 -4 -29
-4 -29 -6 4 -2 53 -21 36 -21 -20 0 -49 -1 -50 -18 -35 -32 29 -33 19 -2 -38
l29 -55 -20 -66 c-11 -36 -22 -64 -23 -62 -2 1 -16 52 -31 113 -25 95 -27 114
-17 152 7 24 12 51 12 60 0 9 10 27 21 40 18 18 23 40 29 115 4 51 20 138 35
193 16 55 30 120 32 145 7 101 5 160 -5 173 -14 16 -30 331 -20 379 9 43 -2
219 -13 212 -5 -3 -9 -23 -9 -45 0 -21 -4 -39 -10 -39 -5 0 -10 21 -10 48 0
74 -19 90 -21 17 l-1 -60 -10 40 c-5 22 -11 50 -14 63 -9 46 -19 20 -16 -44 4
-60 2 -66 -14 -60 -23 9 -34 -10 -34 -60 0 -31 8 -51 30 -79 16 -20 32 -53 36
-72 8 -42 -20 -313 -34 -322 -5 -3 -19 -51 -32 -105 -17 -74 -20 -103 -12
-116 9 -14 6 -22 -14 -41 -13 -12 -24 -27 -24 -33 -1 -13 -57 -76 -68 -76 -4
0 -5 35 0 78 8 87 -4 193 -25 225 -8 12 -35 29 -59 39 -41 14 -50 15 -89 2
-30 -10 -50 -25 -64 -47 -23 -38 -45 -104 -37 -111 9 -10 10 -116 1 -116 -5 0
-9 -7 -9 -15 0 -24 -25 -18 -59 14 -23 22 -31 38 -31 63 0 19 -9 54 -21 77
-11 24 -18 49 -15 56 3 8 -2 19 -10 25 -8 7 -14 19 -14 28 0 8 -16 34 -35 58
-19 23 -35 51 -35 62 0 11 -11 53 -24 93 -37 114 -52 231 -35 282 19 57 17
132 -4 155 -9 10 -17 29 -18 43 0 13 -4 32 -8 42 -6 17 -8 17 -20 3 -7 -9 -16
-39 -21 -68 l-7 -53 -12 33 c-7 17 -17 32 -23 32 -6 0 -7 -8 -3 -17 4 -10 9
-52 12 -93 2 -41 8 -86 13 -100 12 -33 35 -356 32 -445 -2 -55 4 -91 28 -170
19 -60 35 -134 38 -185 5 -54 13 -96 24 -112 37 -56 68 -150 62 -188 -6 -35
-11 -39 -100 -83 -51 -26 -100 -44 -109 -41 -9 4 -15 1 -15 -7 -1 -8 -13 8
-27 36 -23 45 -25 56 -19 126 5 62 2 89 -15 145 -15 48 -20 84 -16 119 3 32 0
63 -9 84 -8 18 -14 44 -14 57 0 17 -4 22 -15 18 -11 -5 -15 1 -15 24 0 47 -17
81 -46 92 -24 9 -25 13 -19 53 3 23 13 64 22 90 27 87 -11 319 -73 438 -17 34
-69 168 -128 334 -32 88 -32 91 -17 128 19 45 14 144 -6 140 -9 -2 -11 7 -6
28 10 51 -19 31 -38 -27 -17 -51 -21 -49 -31 21 -2 11 -8 18 -13 15 -6 -3 -9
-43 -7 -97 2 -51 1 -93 -2 -93 -4 0 -15 5 -26 12 -15 10 -23 9 -39 -6 -12 -11
-21 -30 -21 -42 0 -16 -4 -22 -14 -18 -50 19 -2 -83 64 -135 29 -23 58 -44 66
-49 20 -11 40 -105 64 -290 13 -107 28 -181 42 -214 17 -40 19 -54 9 -67 -6
-9 -23 -40 -37 -69 -27 -56 -45 -70 -94 -75 -17 -2 -38 -11 -46 -19 -12 -12
-21 -13 -39 -4 -29 13 -38 44 -29 102 5 33 11 44 24 44 37 0 49 97 21 175 -6
17 -13 47 -16 68 -11 73 -111 151 -182 142 -38 -5 -104 -50 -131 -90 -16 -23
-21 -45 -20 -92 0 -35 -4 -69 -11 -76 -16 -21 6 -125 30 -138 15 -8 19 -21 19
-65 0 -50 -2 -55 -27 -65 -20 -8 -37 -7 -63 3 -19 8 -50 14 -67 13 -18 0 -33
3 -33 7 0 4 -10 8 -21 10 -15 2 -27 18 -40 53 -22 56 -64 109 -79 100 -16 -10
-12 4 11 34 27 37 49 129 49 211 1 101 16 190 36 204 9 7 15 20 12 28 -11 27
22 75 62 93 34 15 100 82 100 100 0 4 -11 21 -25 37 -23 28 -24 31 -9 42 15
12 15 15 -1 39 -20 31 -23 32 -53 11 -25 -17 -30 -3 -6 17 18 15 43 61 55 101
13 47 -17 34 -52 -22 -29 -48 -59 -69 -44 -32 19 49 28 113 18 123 -8 8 -14 5
-22 -9z m543 -251 c14 -16 15 -24 6 -40 -10 -20 -12 -21 -34 -4 -19 14 -21 21
-12 40 13 28 18 28 40 4z m-470 -7 c9 -24 7 -54 -3 -54 -6 0 -17 10 -25 22
-11 16 -13 25 -4 35 14 17 25 16 32 -3z m-1574 -1139 c0 -41 -11 -58 -24 -37
-8 13 5 82 15 82 5 0 9 -20 9 -45z m2355 28 c3 -10 10 -92 14 -183 5 -96 13
-175 20 -189 10 -18 10 -29 -2 -54 -9 -18 -19 -61 -23 -96 -5 -47 -9 -59 -16
-46 -6 9 -7 28 -3 42 8 34 -20 115 -50 143 -14 13 -25 31 -25 40 0 9 -9 25
-20 35 -11 10 -20 25 -20 33 0 39 97 292 111 292 4 0 10 -8 14 -17z m-925
-215 c42 -89 42 -91 -25 -103 -33 -6 -38 -5 -27 6 19 20 14 59 -9 78 -21 17
-21 18 -5 49 9 18 21 32 27 32 5 0 23 -28 39 -62z m-1189 -333 c-6 -57 -7 -60
-33 -60 -25 -1 -28 3 -28 30 0 16 11 51 25 77 14 27 26 66 26 90 2 38 3 36 8
-17 4 -33 5 -87 2 -120z m3359 41 c0 -8 -4 -18 -10 -21 -5 -3 -10 3 -10 14 0
12 5 21 10 21 6 0 10 -6 10 -14z m-827 -18 c8 -29 1 -38 -29 -38 -43 0 -84
-58 -84 -119 0 -16 -6 -34 -14 -40 -8 -7 -17 -23 -20 -36 -4 -14 -10 -25 -15
-25 -11 0 -32 50 -26 60 3 5 -2 32 -11 60 l-17 52 31 28 c17 16 55 37 84 48
29 10 60 22 68 25 25 9 27 8 33 -15z m-427 -116 c-17 -16 -18 -16 -5 5 7 12
15 20 18 17 3 -2 -3 -12 -13 -22z m-36 -27 c-7 -9 -15 -13 -17 -11 -7 7 7 26
19 26 6 0 6 -6 -2 -15z m-1674 -66 c-3 -17 -6 -40 -6 -50 0 -11 -4 -19 -10
-19 -5 0 -10 12 -10 28 0 15 -4 34 -10 42 -10 15 4 30 29 30 10 0 12 -8 7 -31z
m2924 -249 c0 -11 -2 -20 -4 -20 -2 0 -6 9 -9 20 -3 11 -1 20 4 20 5 0 9 -9 9
-20z"/>
<path d="M3 2875 c0 -22 2 -30 4 -17 2 12 2 30 0 40 -3 9 -5 -1 -4 -23z"/>
</g>
</svg>
