<?xml version="1.0" standalone="no"?>
<!DOCTYPE svg PUBLIC "-//W3C//DTD SVG 20010904//EN"
 "http://www.w3.org/TR/2001/REC-SVG-20010904/DTD/svg10.dtd">
<svg version="1.0" xmlns="http://www.w3.org/2000/svg"
 width="500.000000pt" height="500.000000pt" viewBox="0 0 500.000000 500.000000"
 preserveAspectRatio="xMidYMid meet">
<metadata>
Created by potrace 1.14, written by Peter Selinger 2001-2017
</metadata>
<g transform="translate(0.000000,500.000000) scale(0.100000,-0.100000)"
fill="#000000" stroke="none">
<path d="M0 2500 l0 -2500 2500 0 2500 0 0 2500 0 2500 -2500 0 -2500 0 0
-2500z m952 994 c23 -20 47 -39 51 -43 15 -14 -105 -98 -151 -105 -119 -18
-202 -109 -202 -220 0 -130 89 -199 382 -297 379 -126 510 -255 496 -485 -18
-271 -312 -440 -733 -421 -129 6 -291 35 -380 68 -65 24 -67 32 -29 132 21 54
30 67 43 62 155 -64 269 -88 426 -89 149 -1 239 20 313 74 116 84 135 233 41
335 -53 58 -130 96 -311 156 -190 62 -298 114 -372 181 -104 92 -142 183 -134
319 12 214 192 368 430 369 84 0 87 -1 130 -36z m155 -5 c26 -23 49 -43 51
-44 1 -1 -23 -22 -55 -46 -49 -38 -54 -44 -34 -47 23 -4 108 58 119 86 4 10
-10 29 -39 54 l-44 38 64 0 c60 0 66 -2 113 -42 l50 -42 -53 -48 c-43 -38 -50
-47 -33 -48 28 0 114 68 114 90 0 10 -18 34 -40 54 l-40 36 836 0 835 0 64
-54 64 -54 -60 -46 c-44 -34 -68 -46 -94 -46 -44 0 -253 -43 -331 -68 -203
-66 -386 -219 -475 -394 -48 -96 -93 -248 -73 -248 4 0 32 24 63 53 119 110
264 161 456 161 142 0 201 -12 315 -66 152 -73 262 -209 305 -378 24 -92 17
-290 -13 -380 -43 -132 -137 -259 -244 -332 -122 -82 -226 -116 -383 -125
-357 -20 -634 160 -743 482 -37 111 -47 185 -46 345 1 216 36 365 126 546 71
143 199 291 320 373 l61 41 -639 1 c-351 0 -647 4 -657 7 -15 6 -10 13 28 45
25 21 45 44 45 52 0 7 -19 29 -42 49 l-43 36 52 0 c46 0 57 -4 100 -41z m2088
-13 l64 -54 -60 -46 c-55 -43 -63 -46 -120 -46 l-62 0 47 35 c26 20 46 44 46
55 0 10 -24 39 -52 64 l-53 46 63 0 c62 0 65 -1 127 -54z m190 2 c35 -28 62
-54 60 -58 -2 -4 -29 -26 -58 -49 -51 -39 -57 -41 -122 -41 l-68 0 47 35 c26
20 46 44 46 55 0 10 -24 39 -52 64 l-53 46 68 0 c67 0 69 -1 132 -52z m176 1
c32 -29 59 -55 59 -58 -1 -3 -25 -25 -54 -48 -49 -39 -58 -43 -111 -43 l-58 0
48 44 c31 29 44 49 39 57 -7 12 -60 61 -93 86 -13 10 -5 12 47 13 62 0 65 -1
123 -51z m184 -1 c35 -28 62 -54 60 -58 -2 -4 -29 -26 -58 -49 -49 -38 -59
-41 -113 -41 l-59 1 43 37 c23 21 42 45 42 54 0 9 -24 37 -52 62 l-53 46 63 0
c61 0 65 -2 127 -52z m200 0 c35 -28 62 -54 60 -58 -2 -4 -29 -26 -59 -49 -53
-41 -56 -42 -123 -39 l-68 3 42 30 c68 48 67 61 -11 125 l-48 40 71 0 c71 0
72 0 136 -52z m745 -39 c0 -90 0 -91 -47 -167 -56 -92 -438 -724 -463 -767
-10 -16 -95 -158 -190 -315 -95 -157 -181 -300 -191 -318 -11 -18 -27 -45 -36
-59 -9 -13 -24 -37 -32 -52 -9 -16 -41 -69 -71 -119 l-55 -92 -172 0 -172 0
76 123 c42 67 104 167 138 222 60 96 163 263 415 670 65 105 182 294 260 420
78 127 157 253 175 281 19 29 31 55 28 58 -4 3 -94 6 -202 6 l-196 0 48 41
c26 22 47 45 47 49 0 9 -59 67 -96 95 -16 12 32 14 359 15 l377 0 0 -91z
m-1221 -1176 c12 -10 24 -34 27 -54 5 -28 1 -41 -18 -64 -63 -73 -169 7 -124
93 9 17 21 32 28 35 27 11 67 6 87 -10z m-174 -378 c52 -51 12 -145 -61 -145
-22 0 -74 55 -74 79 0 77 84 118 135 66z"/>
<path d="M2351 2635 c-123 -35 -244 -132 -296 -238 -26 -55 -28 -63 -22 -150
8 -112 26 -181 69 -265 157 -311 610 -323 763 -21 79 155 71 374 -18 516 -35
56 -113 116 -184 144 -76 28 -234 36 -312 14z"/>
</g>
</svg>
