<?xml version="1.0" standalone="no"?>
<!DOCTYPE svg PUBLIC "-//W3C//DTD SVG 20010904//EN"
 "http://www.w3.org/TR/2001/REC-SVG-20010904/DTD/svg10.dtd">
<svg version="1.0" xmlns="http://www.w3.org/2000/svg"
 width="512.000000pt" height="512.000000pt" viewBox="0 0 512.000000 512.000000"
 preserveAspectRatio="xMidYMid meet">
<metadata>
Created by potrace 1.14, written by Peter Selinger 2001-2017
</metadata>
<g transform="translate(0.000000,512.000000) scale(0.100000,-0.100000)"
fill="#000000" stroke="none">
<path d="M343 5104 c-162 -42 -283 -163 -326 -325 -12 -46 -14 -377 -12 -2239
1 -2388 -3 -2197 56 -2310 54 -101 187 -198 302 -219 64 -12 4347 -11 4400 1
164 36 299 167 343 333 11 40 13 450 11 2230 -1 1199 -6 2193 -10 2209 -41
154 -194 296 -348 324 -34 7 -829 10 -2209 10 -1788 0 -2164 -3 -2207 -14z"/>
</g>
</svg>
