<?xml version="1.0" standalone="no"?>
<!DOCTYPE svg PUBLIC "-//W3C//DTD SVG 20010904//EN"
 "http://www.w3.org/TR/2001/REC-SVG-20010904/DTD/svg10.dtd">
<svg version="1.0" xmlns="http://www.w3.org/2000/svg"
 width="512.000000pt" height="512.000000pt" viewBox="0 0 512.000000 512.000000"
 preserveAspectRatio="xMidYMid meet">
<metadata>
Created by potrace 1.14, written by Peter Selinger 2001-2017
</metadata>
<g transform="translate(0.000000,512.000000) scale(0.100000,-0.100000)"
fill="#000000" stroke="none">
<path d="M351 5104 c-169 -45 -301 -183 -340 -354 -7 -30 -10 -765 -8 -2215
l2 -2170 23 -53 c65 -154 172 -249 325 -291 57 -15 218 -16 2207 -16 l2145 1
70 22 c145 44 247 140 306 287 l24 60 3 2155 c3 2394 7 2237 -64 2356 -66 113
-187 200 -309 223 -31 6 -875 10 -2190 9 -1818 0 -2148 -2 -2194 -14z"/>
</g>
</svg>
