<?xml version="1.0" standalone="no"?>
<!DOCTYPE svg PUBLIC "-//W3C//DTD SVG 20010904//EN"
 "http://www.w3.org/TR/2001/REC-SVG-20010904/DTD/svg10.dtd">
<svg version="1.0" xmlns="http://www.w3.org/2000/svg"
 width="514.000000pt" height="514.000000pt" viewBox="0 0 514.000000 514.000000"
 preserveAspectRatio="xMidYMid meet">
<metadata>
Created by potrace 1.14, written by Peter Selinger 2001-2017
</metadata>
<g transform="translate(0.000000,514.000000) scale(0.100000,-0.100000)"
fill="#000000" stroke="none">
<path d="M2280 4839 c-498 -43 -972 -258 -1344 -610 -451 -427 -698 -1003
-697 -1628 0 -264 35 -485 111 -711 192 -569 604 -1042 1138 -1303 331 -163
623 -230 997 -230 377 0 683 72 1008 234 622 312 1058 886 1201 1579 9 41 23
155 32 252 15 165 15 191 0 356 -29 323 -88 538 -221 807 -123 251 -263 444
-456 630 -477 459 -1108 681 -1769 624z m907 -768 c264 -91 443 -339 443 -614
0 -111 -21 -196 -77 -304 l-43 -86 34 -101 c49 -144 61 -222 60 -376 -1 -144
-15 -228 -60 -357 -119 -346 -416 -621 -774 -716 -196 -53 -445 -45 -640 20
-277 92 -529 315 -655 578 -82 172 -106 284 -106 485 0 201 24 313 107 486
152 318 461 553 813 619 47 8 85 16 86 18 1 1 22 34 47 72 90 141 227 242 386
286 94 26 290 21 379 -10z"/>
<path d="M2889 3716 c-91 -32 -146 -86 -180 -176 -49 -129 9 -277 132 -341 63
-32 185 -33 249 -2 131 65 195 203 156 337 -24 80 -99 158 -175 180 -65 19
-133 20 -182 2z"/>
<path d="M2263 3250 c-278 -99 -463 -359 -463 -650 0 -189 81 -375 220 -504
73 -67 159 -116 265 -151 116 -38 284 -38 400 0 116 38 201 89 281 169 78 79
129 158 170 268 25 66 28 86 28 208 1 85 -4 152 -12 181 l-14 46 -41 -8 c-60
-12 -193 -11 -263 2 -87 15 -228 87 -301 153 -71 65 -143 168 -174 249 -12 32
-27 57 -33 56 -6 0 -35 -9 -63 -19z"/>
</g>
</svg>
